<?xml version="1.0" standalone="no"?>
<!DOCTYPE svg PUBLIC "-//W3C//DTD SVG 20010904//EN"
 "http://www.w3.org/TR/2001/REC-SVG-20010904/DTD/svg10.dtd">
<svg version="1.0" xmlns="http://www.w3.org/2000/svg"
 width="256.000000pt" height="256.000000pt" viewBox="0 0 256.000000 256.000000"
 preserveAspectRatio="xMidYMid meet">
<metadata>
Created by potrace 1.11, written by Peter Selinger 2001-2013
</metadata>
<g transform="translate(0.000000,256.000000) scale(0.100000,-0.100000)"
fill="#000000" stroke="none">
<path d="M1227 2554 c-1 -1 -31 -4 -67 -7 -440 -41 -840 -324 -1029 -728 -39
-83 -87 -230 -97 -299 -3 -19 -8 -46 -11 -60 -11 -53 -10 -289 2 -365 47 -292
157 -508 365 -715 166 -166 324 -261 541 -323 231 -67 443 -69 690 -7 234 60
485 221 645 415 151 184 255 420 281 645 13 107 7 331 -12 420 -102 491 -477
877 -961 990 -46 11 -109 22 -141 26 -55 6 -201 12 -206 8z m-36 -291 c8 -77
27 -109 72 -121 60 -17 119 39 112 106 -2 24 -1 24 44 19 72 -10 97 -16 179
-43 287 -97 511 -313 620 -599 33 -86 66 -230 57 -246 -4 -5 -17 -9 -31 -9
-96 0 -137 -122 -55 -165 17 -8 43 -15 59 -15 29 0 30 -1 26 -45 -3 -25 -16
-84 -30 -132 -57 -201 -184 -392 -333 -506 -31 -23 -58 -44 -61 -47 -39 -40
-211 -117 -334 -149 -101 -26 -143 -27 -143 -3 0 49 -5 65 -28 87 -28 29 -79
33 -113 9 -20 -14 -41 -82 -34 -108 4 -14 -96 1 -189 28 -72 21 -243 97 -259
115 -3 3 -23 18 -45 33 -98 67 -214 196 -284 316 -59 101 -112 256 -125 365
-4 35 -3 37 24 37 71 0 117 46 105 107 -7 40 -53 73 -103 73 -31 0 -32 1 -26
33 3 17 7 43 9 57 2 14 13 55 24 92 87 298 320 553 601 657 119 44 259 73 261
54z"/>
<path d="M1253 2020 c-37 -15 -38 -25 -59 -455 -5 -114 -7 -121 -34 -150 -44
-47 -58 -84 -56 -147 2 -47 7 -64 33 -95 43 -54 91 -79 153 -82 9 -1 32 -16
51 -33 50 -47 289 -260 323 -289 16 -13 37 -32 47 -42 9 -11 34 -20 55 -22 31
-3 42 1 71 30 40 40 42 67 6 114 -31 42 -18 26 -212 247 -86 99 -153 184 -157
200 -11 45 -33 86 -67 121 -26 28 -30 41 -33 95 -1 35 -5 133 -9 218 -3 85 -8
166 -9 180 -2 14 -4 37 -5 52 -1 30 -36 68 -60 67 -9 0 -26 -4 -38 -9z"/>
</g>
</svg>
